<svg xmlns="http://www.w3.org/2000/svg" version="1.1" xmlns:xlink="http://www.w3.org/1999/xlink" xmlns:svgjs="http://svgjs.dev/svgjs" viewBox="0 0 600 600"><path d="M405.9800553719929 -182.21244588596926C332.3580143055053 -200.12583064142171 159.72023888436277 -270.5982656389803 108.34229139494221 -241.267560632063C56.964343905521645 -211.9368556251457 79.40528603402099 -75.5195480893384 97.71237043546955 -6.228215844465353C116.0194548369181 63.063116400407694 159.91708489266355 139.0473629722664 218.18479780363361 174.48043283717527C276.4525107146036 209.91350270208414 394.5627478361856 210.50405852890702 447.31864790128975 206.37020334498777C500.07454796639433 202.23634816106852 516.8068121672414 204.79540730413493 534.7201981942595 149.67730173365965C552.6335842212778 94.55919616318437 552.2399074634653 -77.09433777236248 554.7989640634001 -124.33843007786379C557.3580206633352 -171.5825223833651 574.8776892424368 -124.14158279799724 550.0745377938689 -133.78725209934817C525.2713863453013 -143.4329214006991 479.60209643848054 -164.2990611305168 405.9800553719929 -182.21244588596926C332.3580143055053 -200.12583064142171 159.72023888436277 -270.5982656389803 108.34229139494221 -241.267560632063 " fill="url(&quot;#SvgjsRadialGradient1001&quot;)" transform="matrix(0.3790521943479739,-2.149711818491865,2.149711818491865,0.3790521943479739,-61.924401631906676,790.2101137155311)" stroke-width="17" stroke="hsl(230, 55%, 40%)" fill-opacity="0.14"></path><path d="M546.2731457867359 6.566768398674412C472.65110472024827 -11.346616356778057 300.01332929910564 -81.81905135433665 248.6353818096851 -52.48834634741934C197.25743432026454 -23.157641340502025 219.6983764487639 113.25966619530527 238.00546085021244 182.55099844017832C256.312545251661 251.84233068505137 300.2101753074064 327.82657725691007 358.4778882183765 363.25964712181894C416.7456011293466 398.6927169867278 534.8558382509286 399.2832728135507 587.6117383160328 395.14941762963144C640.3676383811369 391.0155624457122 657.0999025819833 393.5746215887786 675.0132886090015 338.4565160183033C692.9266746360197 283.33841044782804 692.5329978782072 111.68487651228119 695.0920544781421 64.44078420677988C697.6511110780771 17.19669190127857 715.1707796571786 64.63763148664643 690.3676282086109 54.991962185295506C665.5644767600431 45.346292883944585 619.8951868532235 24.48015315412688 546.2731457867359 6.566768398674412C472.65110472024827 -11.346616356778057 300.01332929910564 -81.81905135433665 248.6353818096851 -52.48834634741934 " fill-opacity="0.16" fill="url(&quot;#SvgjsRadialGradient1000&quot;)" opacity="1" stroke-opacity="1" stroke-width="35" stroke="hsl(205, 69%, 50%)" transform="matrix(0.19144711587779087,1.0857505476959601,-1.0857505476959601,0.19144711587779087,565.2978269037075,-13.79231299965386)"></path><defs><radialGradient id="SvgjsRadialGradient1000"><stop stop-color="hsl(205, 69%, 60%)" offset="0"></stop><stop stop-color="hsl(205, 69%, 80%)" offset="1"></stop></radialGradient><radialGradient id="SvgjsRadialGradient1001"><stop stop-color="hsl(340, 45%, 50%)" offset="0"></stop><stop stop-color="hsl(340, 45%, 80%)" offset="1"></stop></radialGradient></defs></svg>